<?xml version="1.0" encoding="utf-8"?>
<!-- Generator: Adobe Illustrator 16.0.0, SVG Export Plug-In . SVG Version: 6.00 Build 0)  -->
<!DOCTYPE svg PUBLIC "-//W3C//DTD SVG 1.1//EN" "http://www.w3.org/Graphics/SVG/1.1/DTD/svg11.dtd">
<svg version="1.1" id="Layer_1" xmlns="http://www.w3.org/2000/svg" xmlns:xlink="http://www.w3.org/1999/xlink" x="0px" y="0px"
	 width="283.464px" height="86.686px" viewBox="0 0 283.464 86.686" enable-background="new 0 0 283.464 86.686"
	 xml:space="preserve">
<path fill="#FFFFFF" d="M283.464,86.686H0V0h283.464V86.686z M4.016,82.671h275.433V4.017H4.016V82.671z"/>
<g>
	<path fill="#FFFFFF" d="M63.284,48.46c0.749-0.473,1.398-1.032,1.931-1.665c0.566-0.672,1.005-1.419,1.305-2.221
		c0.303-0.806,0.455-1.653,0.455-2.52c0-1.267-0.219-2.426-0.651-3.443c-0.445-1.045-1.129-1.943-2.032-2.667
		c-0.881-0.706-1.992-1.245-3.304-1.6c-1.264-0.343-2.767-0.517-4.467-0.517h-9.17v30.399h10.214c1.603,0,3.062-0.193,4.339-0.573
		c1.314-0.391,2.444-0.97,3.359-1.721c0.936-0.766,1.659-1.714,2.148-2.816c0.483-1.087,0.728-2.317,0.728-3.657
		c0-2.162-0.712-3.939-2.116-5.281C65.278,49.468,64.363,48.893,63.284,48.46 M62.594,44.047c-0.228,0.561-0.576,1.053-1.065,1.504
		c-0.493,0.455-1.148,0.831-1.947,1.118c-0.816,0.293-1.831,0.441-3.021,0.441h-5.155v-9.649h5.115c2.28,0,3.953,0.42,4.976,1.25
		c0.972,0.789,1.444,1.955,1.444,3.564C62.94,42.88,62.824,43.475,62.594,44.047 M51.405,60.574v-9.949h6.139
		c1.09,0,2.071,0.121,2.914,0.361c0.807,0.232,1.49,0.563,2.026,0.98c0.522,0.408,0.91,0.887,1.187,1.466
		c0.274,0.578,0.413,1.246,0.413,1.986c0,1.658-0.507,2.895-1.551,3.778c-1.078,0.914-2.764,1.377-5.009,1.377H51.405z"/>
	<path fill="#FFFFFF" d="M86.798,44.252c-0.63-0.757-1.429-1.345-2.376-1.747c-0.924-0.392-2.001-0.592-3.201-0.592
		c-1.598,0-3.056,0.302-4.337,0.897c-1.252,0.583-2.455,1.446-3.576,2.568l-0.549,0.548l0.721,1.23
		c0.537,0.969,1.744,1.266,2.898,0.216c0.261-0.237,0.609-0.505,1.038-0.798c0.402-0.276,0.912-0.538,1.516-0.777
		c0.553-0.219,1.257-0.33,2.088-0.33c1.254,0,2.157,0.365,2.756,1.117c0.648,0.811,0.975,2.033,0.975,3.637v1.115
		c-1.9,0.082-3.579,0.267-5,0.549c-1.696,0.337-3.117,0.803-4.223,1.379c-1.169,0.612-2.052,1.358-2.627,2.221
		c-0.59,0.886-0.89,1.863-0.89,2.902c0,1.055,0.182,1.982,0.544,2.762c0.362,0.78,0.853,1.434,1.46,1.941
		c0.595,0.498,1.286,0.872,2.05,1.111c0.737,0.229,1.505,0.347,2.287,0.347c0.886,0,1.716-0.086,2.467-0.256
		c0.757-0.17,1.476-0.424,2.135-0.753c0.646-0.322,1.274-0.724,1.868-1.193c0.076-0.061,0.153-0.121,0.229-0.184l0.067,0.609
		l0.025,0.135c0.208,0.828,0.849,1.321,1.716,1.321h1.766V50.221c0-1.201-0.149-2.314-0.442-3.305
		C87.877,45.886,87.411,44.99,86.798,44.252 M84.751,54.635v3.74c-0.355,0.354-0.717,0.688-1.075,0.997
		c-0.425,0.366-0.889,0.686-1.379,0.952c-0.48,0.26-1.011,0.466-1.578,0.613c-0.906,0.233-2.083,0.352-3.098,0.042
		c-0.348-0.107-0.641-0.268-0.898-0.491c-0.252-0.218-0.454-0.499-0.618-0.858c-0.159-0.354-0.241-0.8-0.241-1.323
		c0-0.486,0.141-0.909,0.427-1.287c0.317-0.42,0.85-0.799,1.58-1.127c0.807-0.364,1.865-0.659,3.147-0.88
		C82.085,54.832,83.339,54.705,84.751,54.635"/>
	<path fill="#FFFFFF" d="M111.447,44.32c-0.65-0.777-1.479-1.379-2.461-1.787c-0.955-0.398-2.06-0.599-3.285-0.599
		c-1.655,0-3.187,0.4-4.547,1.19c-0.641,0.371-1.245,0.803-1.811,1.292L99.3,43.7l-0.011-0.1c-0.132-0.817-0.758-1.344-1.593-1.344
		h-2.048v21.971h3.914v-15.63c0.752-0.946,1.6-1.705,2.524-2.26c0.972-0.585,1.998-0.87,3.133-0.87c1.459,0,2.49,0.399,3.151,1.221
		c0.705,0.876,1.062,2.146,1.062,3.775v13.764h3.914V50.463c0-1.26-0.156-2.411-0.464-3.422
		C112.563,45.993,112.082,45.077,111.447,44.32"/>
	<path fill="#FFFFFF" d="M128.188,52.274l8.532-8.06h-4.21c-0.427,0-0.802,0.097-1.113,0.288c-0.221,0.134-0.436,0.304-0.619,0.487
		l-5.999,5.665c-0.104,0.102-0.16,0.138-0.16,0.138c-0.038,0.013-0.084,0.021-0.135,0.026V33.026h-3.913v31.201h3.913V54.156
		c0.259,0.007,0.356,0.035,0.356,0.035h0.003c0.004,0.002,0.109,0.054,0.311,0.268l8.381,8.982c0.231,0.251,0.478,0.443,0.733,0.57
		c0.287,0.144,0.607,0.216,0.95,0.216h3.951l-10.798-11.759C128.309,52.402,128.249,52.336,128.188,52.274"/>
	<path fill="#FFFFFF" d="M173.478,29.867c-1.633,0-3.126,0.392-4.439,1.162c-0.548,0.32-1.07,0.693-1.563,1.116l-0.018-11.186
		h-3.912v31.202h2.156c0.829,0,1.43-0.544,1.538-1.457l0.002-0.039c0.387,0.315,0.797,0.592,1.228,0.823
		c1.148,0.619,2.518,0.935,4.074,0.935s2.961-0.307,4.174-0.908c1.205-0.598,2.239-1.429,3.07-2.469
		c0.818-1.025,1.446-2.245,1.864-3.628c0.408-1.354,0.615-2.824,0.615-4.373c0-3.618-0.768-6.399-2.28-8.267
		C178.422,30.846,176.232,29.867,173.478,29.867 M169.436,48.322c-0.696-0.348-1.359-0.963-1.977-1.831V36.59
		c0.721-0.984,1.53-1.764,2.41-2.324c0.916-0.583,1.916-0.866,3.057-0.866c1.74,0,3.028,0.561,3.934,1.713
		c0.95,1.211,1.433,3.206,1.433,5.932c0,1.213-0.141,2.335-0.416,3.333c-0.267,0.962-0.662,1.793-1.176,2.468
		c-0.505,0.662-1.113,1.16-1.86,1.521c-0.742,0.359-1.636,0.542-2.657,0.542C171.139,48.909,170.214,48.712,169.436,48.322"/>
	<path fill="#FFFFFF" d="M200.946,32.185c-0.629-0.756-1.428-1.344-2.376-1.746c-0.923-0.392-2.001-0.592-3.2-0.592
		c-1.599,0-3.058,0.302-4.335,0.897c-1.253,0.581-2.455,1.445-3.578,2.567l-0.55,0.549l0.723,1.23
		c0.536,0.968,1.735,1.27,2.897,0.216c0.261-0.236,0.607-0.505,1.035-0.797c0.405-0.277,0.916-0.539,1.519-0.778
		c0.553-0.22,1.257-0.331,2.088-0.331c1.254,0,2.155,0.366,2.757,1.117c0.646,0.811,0.975,2.035,0.975,3.638v1.115
		c-1.9,0.082-3.58,0.266-5.002,0.548c-1.696,0.339-3.117,0.803-4.223,1.38c-1.17,0.612-2.052,1.358-2.626,2.219
		c-0.591,0.887-0.892,1.864-0.892,2.904c0,1.053,0.184,1.98,0.546,2.761c0.362,0.781,0.854,1.435,1.46,1.941
		c0.593,0.498,1.283,0.873,2.05,1.112c0.737,0.229,1.507,0.347,2.287,0.347c0.885,0,1.716-0.086,2.467-0.256
		c0.758-0.171,1.477-0.424,2.134-0.753c0.648-0.324,1.277-0.725,1.87-1.194c0.075-0.061,0.153-0.121,0.229-0.184l0.065,0.61
		l0.024,0.132c0.203,0.816,0.86,1.324,1.716,1.324h1.767V38.155c0-1.2-0.147-2.313-0.441-3.305
		C202.024,33.818,201.559,32.923,200.946,32.185 M198.9,42.569v3.74c-0.355,0.354-0.717,0.688-1.076,0.996
		c-0.426,0.368-0.891,0.688-1.378,0.952c-0.48,0.261-1.012,0.467-1.579,0.613c-0.903,0.233-2.08,0.354-3.098,0.043
		c-0.348-0.107-0.642-0.268-0.897-0.49c-0.25-0.217-0.457-0.506-0.617-0.86c-0.161-0.354-0.242-0.801-0.242-1.322
		c0-0.487,0.14-0.909,0.427-1.287c0.318-0.42,0.852-0.798,1.58-1.127c0.808-0.364,1.865-0.66,3.147-0.879
		C196.234,42.764,197.486,42.638,198.9,42.569"/>
	<path fill="#FFFFFF" d="M223.73,30.707c-0.522-0.277-1.085-0.492-1.67-0.639c-0.587-0.146-1.228-0.22-1.909-0.22
		c-1.804,0-3.354,0.544-4.605,1.615c-0.37,0.317-0.718,0.673-1.044,1.065l-0.029-0.773c-0.029-0.491-0.193-0.88-0.49-1.158
		c-0.292-0.271-0.688-0.409-1.175-0.409h-2.007v21.973h3.914V38.345c0.54-1.531,1.229-2.707,2.051-3.5
		c0.782-0.756,1.772-1.123,3.025-1.123c0.356,0,0.672,0.022,0.938,0.066c0.271,0.046,0.5,0.095,0.686,0.15
		c0.2,0.062,0.368,0.117,0.498,0.164c0.264,0.096,0.481,0.141,0.687,0.141c0.713,0,1.258-0.447,1.386-1.131l0.405-2.056
		L223.73,30.707z"/>
	<path fill="#FFFFFF" d="M139.574,36.362h4.192c0.428,0,0.803-0.098,1.114-0.287c0.22-0.135,0.435-0.306,0.624-0.493l3.621-3.465
		V51.98h3.913V26.277h-2.891L139.574,36.362z"/>
</g>
</svg>
